<?xml version="1.0" encoding="utf-8"?>
<svg width="150" height="150" viewBox="100 130 300 270" xmlns="http://www.w3.org/2000/svg">
  <defs>
    <linearGradient id="paint0_linear_16_339" x1="-12.4348" y1="91.2145" x2="228.124" y2="92.098" gradientUnits="userSpaceOnUse" gradientTransform="matrix(1, 0, 0.048685, 1, 143.034195, 151.562943)">
      <stop stop-color="#AA367C"/>
      <stop offset="1" stop-color="#4A2FBD"/>
    </linearGradient>
  </defs>
  <path d="M 334.076 221.465 C 339.43 219.422 345.698 222.177 347.442 227.811 C 354.018 249.049 353.681 271.614 346.313 292.109 C 337.771 315.873 320.405 335.106 297.681 345.972 C 274.956 356.838 248.544 358.538 223.713 350.732 C 198.882 342.927 177.457 326.191 163.713 303.862 C 149.969 281.533 144.916 255.253 149.562 230.265 C 154.208 205.276 168.212 183.417 188.78 169.047 C 209.347 154.677 234.966 148.854 260.526 152.738 C 282.571 156.087 275.107 176.127 258.35 173.581 C 238.074 170.5 217.751 175.12 201.435 186.519 C 185.12 197.918 174.011 215.258 170.325 235.081 C 166.64 254.903 170.648 275.751 181.551 293.464 C 192.454 311.177 209.449 324.453 229.147 330.645 C 248.845 336.837 269.798 335.488 287.824 326.868 C 305.85 318.249 319.625 302.992 326.403 284.141 C 332.003 268.562 332.482 251.475 327.924 235.251 C 326.329 229.579 328.724 223.509 334.076 221.465 Z" fill="url(#paint0_linear_16_339)" style=""/>
  <text style="fill: rgb(255, 255, 255); font-family: Arial, sans-serif; font-size: 30px; white-space: pre;" x="48.099" y="303.972" dx="172.803" dy="-41.568">80%</text>
</svg>